<svg xmlns="http://www.w3.org/2000/svg" version="1.1" xmlns:xlink="http://www.w3.org/1999/xlink" xmlns:svgjs="http://svgjs.dev/svgjs" width="1000" height="121" viewBox="0 0 1000 121"><g transform="matrix(1,0,0,1,-0.6060605504794694,0.03891336488914732)"><svg viewBox="0 0 396 48" data-background-color="#ffffff" preserveAspectRatio="xMidYMid meet" height="121" width="1000" xmlns="http://www.w3.org/2000/svg" xmlns:xlink="http://www.w3.org/1999/xlink"><g id="tight-bounds" transform="matrix(1,0,0,1,0.24000002201017878,-0.015436706732884886)"><svg viewBox="0 0 395.52 48.03087341346574" height="48.03087341346574" width="395.52"><g><svg viewBox="0 0 461.0765241325752 55.991879461297785" height="48.03087341346574" width="395.52"><g transform="matrix(1,0,0,1,0,7.738385656373286)"><svg viewBox="0 0 395.52000000000004 40.515108148551214" height="40.515108148551214" width="395.52000000000004"><g><svg viewBox="0 0 395.52000000000004 40.515108148551214" height="40.515108148551214" width="395.52000000000004"><g><svg viewBox="0 0 395.52000000000004 40.515108148551214" height="40.515108148551214" width="395.52000000000004"><g transform="matrix(1,0,0,1,0,0)"><svg width="395.52000000000004" viewBox="3.200000047683716 -37.349998474121094 367.5199890136719 37.64999771118164" height="40.515108148551214" data-palette-color="#3d3839"><path d="M10.6 0L3.2 0 3.2-37 18.8-37Q20.6-37 22.48-36.58 24.35-36.15 25.93-34.88 27.5-33.6 28.48-31.05 29.45-28.5 29.45-24.3L29.45-24.3Q29.45-20.1 28.48-17.5 27.5-14.9 25.95-13.55 24.4-12.2 22.6-11.75 20.8-11.3 19.1-11.3L19.1-11.3Q18.2-11.3 17-11.38 15.8-11.45 14.58-11.6 13.35-11.75 12.3-11.88 11.25-12 10.6-12.1L10.6-12.1 10.6 0ZM10.6-30.35L10.6-17.95 17.95-17.95Q19.25-17.95 20.18-18.57 21.1-19.2 21.55-20.58 22-21.95 22-24.25L22-24.25Q22-26.5 21.53-27.83 21.05-29.15 20.18-29.75 19.3-30.35 18.1-30.35L18.1-30.35 10.6-30.35ZM41.65 0L34.25 0 34.25-37 49.55-37Q51.75-37 53.65-36.48 55.55-35.95 57-34.65 58.45-33.35 59.27-31.05 60.1-28.75 60.1-25.15L60.1-25.15Q60.1-22.6 59.6-20.8 59.1-19 58.27-17.85 57.45-16.7 56.4-16 55.35-15.3 54.25-14.85L54.25-14.85 61.15 0 53.6 0 47.65-13.7Q47.05-13.7 46.27-13.73 45.5-13.75 44.7-13.75 43.9-13.75 43.1-13.75 42.3-13.75 41.65-13.8L41.65-13.8 41.65 0ZM41.65-30.35L41.65-19.65 48.25-19.65Q49.25-19.65 50.05-19.9 50.85-20.15 51.45-20.78 52.05-21.4 52.37-22.45 52.7-23.5 52.7-25.15L52.7-25.15Q52.7-26.7 52.37-27.73 52.05-28.75 51.45-29.33 50.85-29.9 50.05-30.13 49.25-30.35 48.25-30.35L48.25-30.35 41.65-30.35ZM74.59 0.25L74.59 0.25Q73.4 0.25 71.84 0.03 70.3-0.2 68.87-1 67.45-1.8 66.52-3.43 65.59-5.05 65.59-7.9L65.59-7.9 65.59-28.55Q65.59-31 66.34-32.65 67.09-34.3 68.34-35.25 69.59-36.2 71.09-36.6 72.59-37 74.05-37L74.05-37Q77.8-37 80.67-36.9 83.55-36.8 85.84-36.68 88.15-36.55 90.05-36.35L90.05-36.35 90.05-30.15 76.25-30.15Q74.7-30.15 73.84-29.4 73-28.65 73-27.1L73-27.1 73-21.75 87.65-21.35 87.65-15.5 73-15.1 73-10Q73-8.7 73.42-7.98 73.84-7.25 74.57-6.98 75.3-6.7 76.09-6.7L76.09-6.7 90.05-6.7 90.05-0.5Q87.84-0.25 85.17-0.1 82.5 0.05 79.77 0.15 77.05 0.25 74.59 0.25ZM110.64 0L95.44 0 95.44-37 109.99-37Q115.49-37 118.02-34.48 120.54-31.95 120.54-27.3L120.54-27.3Q120.54-25.1 119.92-23.43 119.29-21.75 118.14-20.68 116.99-19.6 115.39-19.2L115.39-19.2Q116.59-18.9 117.72-18.25 118.84-17.6 119.77-16.5 120.69-15.4 121.22-13.83 121.74-12.25 121.74-10.2L121.74-10.2Q121.74-6.45 120.47-4.2 119.19-1.95 116.72-0.98 114.24 0 110.64 0L110.64 0ZM102.84-16.05L102.84-6.65 110.44-6.65Q111.74-6.65 112.69-7.15 113.64-7.65 114.17-8.7 114.69-9.75 114.69-11.5L114.69-11.5Q114.69-12.95 114.14-13.95 113.59-14.95 112.64-15.5 111.69-16.05 110.44-16.05L110.44-16.05 102.84-16.05ZM102.84-30.35L102.84-21.75 110.04-21.75Q111.64-21.75 112.57-22.93 113.49-24.1 113.49-26L113.49-26Q113.54-28.45 112.49-29.4 111.44-30.35 109.94-30.35L109.94-30.35 102.84-30.35ZM140.74 0.25L140.74 0.25Q137.69 0.25 135.04-0.28 132.39-0.8 130.41-2.13 128.44-3.45 127.37-5.83 126.29-8.2 126.29-11.9L126.29-11.9 126.29-37 133.69-37 133.69-11.95Q133.69-9.9 134.52-8.7 135.34-7.5 136.91-6.95 138.49-6.4 140.74-6.4L140.74-6.4Q142.94-6.4 144.52-6.95 146.09-7.5 146.92-8.7 147.74-9.9 147.74-11.95L147.74-11.95 147.74-37 155.19-37 155.19-11.9Q155.19-8.2 154.09-5.83 152.99-3.45 151.04-2.13 149.09-0.8 146.47-0.28 143.84 0.25 140.74 0.25ZM168.49 0L161.09 0 161.09-37 168.49-37 168.49 0ZM197.29 0L183.64 0Q180.79 0 178.81-0.88 176.84-1.75 175.86-3.68 174.89-5.6 174.89-8.75L174.89-8.75 174.89-37 182.29-37 182.29-9.95Q182.29-8.75 182.71-8 183.14-7.25 183.89-6.98 184.64-6.7 185.59-6.7L185.59-6.7 197.29-6.7 197.29 0ZM217.28 0L201.63 0 201.63-37 217.28-37Q221.03-37 223.53-35.68 226.03-34.35 227.51-31.88 228.98-29.4 229.58-26 230.18-22.6 230.18-18.5L230.18-18.5Q230.18-12.25 228.76-8.15 227.33-4.05 224.48-2.02 221.63 0 217.28 0L217.28 0ZM209.03-30.35L209.03-6.65 216.53-6.65Q218.83-6.65 220.18-7.98 221.53-9.3 222.16-11.95 222.78-14.6 222.78-18.5L222.78-18.5Q222.78-22.1 222.38-24.43 221.98-26.75 221.21-28.05 220.43-29.35 219.26-29.85 218.08-30.35 216.53-30.35L216.53-30.35 209.03-30.35ZM260.98 0.3L260.98 0.3Q257.73 0.3 255.25-0.45 252.78-1.2 251.05-3.2 249.33-5.2 248.45-8.93 247.58-12.65 247.58-18.6L247.58-18.6Q247.58-24.35 248.5-28.03 249.43-31.7 251.18-33.73 252.93-35.75 255.43-36.55 257.93-37.35 261.08-37.35L261.08-37.35Q263.58-37.35 265.75-37.08 267.93-36.8 269.68-36.43 271.43-36.05 272.63-35.6L272.63-35.6 272.63-29.85Q271.73-30.05 270.2-30.25 268.68-30.45 266.73-30.58 264.78-30.7 262.63-30.7L262.63-30.7Q260.53-30.7 259.05-30.23 257.58-29.75 256.7-28.48 255.83-27.2 255.4-24.8 254.98-22.4 254.98-18.55L254.98-18.55Q254.98-14.85 255.35-12.45 255.73-10.05 256.58-8.72 257.43-7.4 258.9-6.88 260.38-6.35 262.63-6.35L262.63-6.35Q266.43-6.35 268.8-6.5 271.18-6.65 272.63-6.85L272.63-6.85 272.63-1.15Q271.28-0.7 269.53-0.38 267.78-0.05 265.68 0.13 263.58 0.3 260.98 0.3ZM291.63 0.3L291.63 0.3Q287.83 0.3 284.98-0.43 282.13-1.15 280.2-3.13 278.28-5.1 277.33-8.8 276.38-12.5 276.38-18.45L276.38-18.45Q276.38-24.4 277.35-28.13 278.33-31.85 280.23-33.85 282.13-35.85 284.98-36.6 287.83-37.35 291.63-37.35L291.63-37.35Q295.43-37.35 298.28-36.6 301.13-35.85 303.03-33.85 304.93-31.85 305.88-28.13 306.83-24.4 306.83-18.45L306.83-18.45Q306.83-12.5 305.88-8.8 304.93-5.1 303.03-3.13 301.13-1.15 298.28-0.43 295.43 0.3 291.63 0.3ZM291.63-6.35L291.63-6.35Q293.88-6.35 295.38-6.85 296.88-7.35 297.75-8.63 298.63-9.9 299.03-12.28 299.43-14.65 299.43-18.45L299.43-18.45Q299.43-22.45 299.03-24.85 298.63-27.25 297.75-28.53 296.88-29.8 295.38-30.25 293.88-30.7 291.63-30.7L291.63-30.7Q289.48-30.7 287.98-30.25 286.48-29.8 285.55-28.53 284.63-27.25 284.2-24.85 283.78-22.45 283.78-18.45L283.78-18.45Q283.78-14.65 284.15-12.28 284.53-9.9 285.43-8.63 286.33-7.35 287.85-6.85 289.38-6.35 291.63-6.35ZM327.92 0L312.27 0 312.27-37 327.92-37Q331.67-37 334.17-35.68 336.67-34.35 338.15-31.88 339.62-29.4 340.22-26 340.82-22.6 340.82-18.5L340.82-18.5Q340.82-12.25 339.4-8.15 337.97-4.05 335.12-2.02 332.27 0 327.92 0L327.92 0ZM319.67-30.35L319.67-6.65 327.17-6.65Q329.47-6.65 330.82-7.98 332.17-9.3 332.8-11.95 333.42-14.6 333.42-18.5L333.42-18.5Q333.42-22.1 333.02-24.43 332.62-26.75 331.85-28.05 331.07-29.35 329.9-29.85 328.72-30.35 327.17-30.35L327.17-30.35 319.67-30.35ZM355.27 0.25L355.27 0.25Q354.07 0.25 352.52 0.03 350.97-0.2 349.55-1 348.12-1.8 347.2-3.43 346.27-5.05 346.27-7.9L346.27-7.9 346.27-28.55Q346.27-31 347.02-32.65 347.77-34.3 349.02-35.25 350.27-36.2 351.77-36.6 353.27-37 354.72-37L354.72-37Q358.47-37 361.35-36.9 364.22-36.8 366.52-36.68 368.82-36.55 370.72-36.35L370.72-36.35 370.72-30.15 356.92-30.15Q355.37-30.15 354.52-29.4 353.67-28.65 353.67-27.1L353.67-27.1 353.67-21.75 368.32-21.35 368.32-15.5 353.67-15.1 353.67-10Q353.67-8.7 354.1-7.98 354.52-7.25 355.25-6.98 355.97-6.7 356.77-6.7L356.77-6.7 370.72-6.7 370.72-0.5Q368.52-0.25 365.85-0.1 363.17 0.05 360.45 0.15 357.72 0.25 355.27 0.25Z" opacity="1" transform="matrix(1,0,0,1,0,0)" fill="#3d3839" class="undefined-text-0" data-fill-palette-color="primary" id="text-0"></path></svg></g></svg></g></svg></g></svg></g><g transform="matrix(1,0,0,1,405.08464467127743,0)"><svg viewBox="0 0 55.991879461297785 55.991879461297785" height="55.991879461297785" width="55.991879461297785"><g data-palette-color="#111111"><rect width="15.304447052754726" height="55.991879461297785" fill="#111111" stroke="transparent" data-fill-palette-color="accent" x="0" fill-opacity="1"></rect><rect width="15.304447052754726" height="55.991879461297785" fill="#111111" stroke="transparent" data-fill-palette-color="accent" x="18.663959820432595" fill-opacity="0.75"></rect><rect width="15.304447052754726" height="55.991879461297785" fill="#111111" stroke="transparent" data-fill-palette-color="accent" x="37.32791964086519" fill-opacity="0.5"></rect></g></svg></g></svg></g><defs></defs></svg><rect width="395.52" height="48.03087341346574" fill="none" stroke="none" visibility="hidden"></rect></g></svg></g></svg>